<svg width="78" height="78" viewBox="0 0 78 78" fill="none" xmlns="http://www.w3.org/2000/svg">
<path d="M69.8096 28.8867C69.8104 28.6629 69.78 28.4401 69.7193 28.2247L65.4013 13.1194C65.1111 12.1171 64.5045 11.2356 63.672 10.6065C62.8395 9.97742 61.8259 9.63448 60.7825 9.62891H16.2488C15.2054 9.63448 14.1917 9.97742 13.3593 10.6065C12.5268 11.2356 11.9201 12.1171 11.6299 13.1194L7.31496 28.2247C7.25323 28.44 7.22183 28.6628 7.22168 28.8867V33.7012C7.22168 35.5697 7.65673 37.4126 8.49237 39.0839C9.32801 40.7552 10.5413 42.2089 12.0361 43.3301V64.9951C12.0361 65.6336 12.2898 66.2458 12.7412 66.6973C13.1926 67.1487 13.8049 67.4023 14.4434 67.4023H62.5879C63.2263 67.4023 63.8386 67.1487 64.2901 66.6973C64.7415 66.2458 64.9951 65.6336 64.9951 64.9951V43.3301C66.49 42.2089 67.7032 40.7552 68.5389 39.0839C69.3745 37.4126 69.8096 35.5697 69.8096 33.7012V28.8867ZM16.2488 14.4434H60.7825L64.2188 26.4795H12.8215L16.2488 14.4434ZM31.2939 31.2939H45.7373V33.7012C45.7373 35.6165 44.9765 37.4533 43.6221 38.8077C42.2678 40.162 40.4309 40.9229 38.5156 40.9229C36.6003 40.9229 34.7635 40.162 33.4091 38.8077C32.0548 37.4533 31.2939 35.6165 31.2939 33.7012V31.2939ZM26.4795 31.2939V33.7012C26.4791 34.943 26.1584 36.1638 25.5485 37.2455C24.9385 38.3273 24.06 39.2334 22.9976 39.8765C21.9353 40.5196 20.725 40.8779 19.4838 40.9168C18.2426 40.9556 17.0123 40.6738 15.9118 40.0984C15.7441 39.9684 15.5599 39.8611 15.3641 39.7794C14.3443 39.1265 13.505 38.2277 12.9235 37.1655C12.3419 36.1034 12.0368 34.9121 12.0361 33.7012V31.2939H26.4795ZM60.1807 62.5879H16.8506V45.4966C17.6431 45.6563 18.4494 45.7369 19.2578 45.7373C21.1264 45.7373 22.9693 45.3023 24.6405 44.4666C26.3118 43.631 27.7656 42.4177 28.8867 40.9229C30.0078 42.4177 31.4616 43.631 33.1329 44.4666C34.8042 45.3023 36.6471 45.7373 38.5156 45.7373C40.3842 45.7373 42.2271 45.3023 43.8983 44.4666C45.5696 43.631 47.0234 42.4177 48.1445 40.9229C49.2657 42.4177 50.7194 43.631 52.3907 44.4666C54.062 45.3023 55.9049 45.7373 57.7734 45.7373C58.5818 45.7369 59.3882 45.6563 60.1807 45.4966V62.5879ZM61.6641 39.7794C61.4706 39.8607 61.2885 39.9669 61.1225 40.0954C60.0221 40.6714 58.7918 40.9538 57.5504 40.9154C56.3089 40.8771 55.0984 40.5192 54.0357 39.8764C52.973 39.2335 52.094 38.3275 51.4837 37.2458C50.8734 36.164 50.5524 34.9432 50.5518 33.7012V31.2939H64.9951V33.7012C64.9941 34.9124 64.6886 36.1039 64.1065 37.166C63.5244 38.2282 62.6845 39.1269 61.6641 39.7794Z" fill="#15194B"/>
</svg>
