<svg width="67" height="67" viewBox="0 0 67 67" fill="none" xmlns="http://www.w3.org/2000/svg">
<path d="M60.7188 54.4375C60.7188 54.9928 60.4982 55.5254 60.1055 55.918C59.7129 56.3107 59.1803 56.5312 58.625 56.5312H8.375C7.8197 56.5312 7.28715 56.3107 6.8945 55.918C6.50184 55.5254 6.28125 54.9928 6.28125 54.4375V12.5625C6.28125 12.0072 6.50184 11.4746 6.8945 11.082C7.28715 10.6893 7.8197 10.4688 8.375 10.4688C8.9303 10.4688 9.46285 10.6893 9.8555 11.082C10.2482 11.4746 10.4688 12.0072 10.4688 12.5625V41.0087L23.6437 27.8312C23.8381 27.6365 24.069 27.4821 24.3232 27.3767C24.5774 27.2713 24.8498 27.2171 25.125 27.2171C25.4002 27.2171 25.6726 27.2713 25.9268 27.3767C26.181 27.4821 26.4119 27.6365 26.6063 27.8312L33.5 34.7275L47.29 20.9375H41.875C41.3197 20.9375 40.7871 20.7169 40.3945 20.3243C40.0018 19.9316 39.7812 19.399 39.7812 18.8438C39.7812 18.2885 40.0018 17.7559 40.3945 17.3632C40.7871 16.9706 41.3197 16.75 41.875 16.75H52.3438C52.899 16.75 53.4316 16.9706 53.8243 17.3632C54.2169 17.7559 54.4375 18.2885 54.4375 18.8438V29.3125C54.4375 29.8678 54.2169 30.4004 53.8243 30.793C53.4316 31.1857 52.899 31.4062 52.3438 31.4062C51.7885 31.4062 51.2559 31.1857 50.8632 30.793C50.4706 30.4004 50.25 29.8678 50.25 29.3125V23.8975L34.9813 39.1688C34.7869 39.3635 34.556 39.5179 34.3018 39.6233C34.0476 39.7287 33.7752 39.7829 33.5 39.7829C33.2248 39.7829 32.9524 39.7287 32.6982 39.6233C32.444 39.5179 32.2131 39.3635 32.0187 39.1688L25.125 32.2725L10.4688 46.9288V52.3438H58.625C59.1803 52.3438 59.7129 52.5643 60.1055 52.957C60.4982 53.3496 60.7188 53.8822 60.7188 54.4375Z" fill="#15194B"/>
</svg>
