<svg width="62" height="67" viewBox="0 0 62 67" fill="none" xmlns="http://www.w3.org/2000/svg">
<path d="M19.2578 33.0994V28.2849C19.2578 27.8061 19.448 27.3469 19.7866 27.0083C20.1252 26.6697 20.5844 26.4795 21.0632 26.4795C21.5421 26.4795 22.0013 26.6697 22.3399 27.0083C22.6784 27.3469 22.8687 27.8061 22.8687 28.2849V33.0994C22.8687 33.5782 22.6784 34.0374 22.3399 34.376C22.0013 34.7146 21.5421 34.9048 21.0632 34.9048C20.5844 34.9048 20.1252 34.7146 19.7866 34.376C19.448 34.0374 19.2578 33.5782 19.2578 33.0994ZM30.6921 34.9048C31.171 34.9048 31.6302 34.7146 31.9688 34.376C32.3073 34.0374 32.4976 33.5782 32.4976 33.0994V25.8777C32.4976 25.3989 32.3073 24.9396 31.9688 24.6011C31.6302 24.2625 31.171 24.0723 30.6921 24.0723C30.2133 24.0723 29.7541 24.2625 29.4155 24.6011C29.0769 24.9396 28.8867 25.3989 28.8867 25.8777V33.0994C28.8867 33.5782 29.0769 34.0374 29.4155 34.376C29.7541 34.7146 30.2133 34.9048 30.6921 34.9048ZM40.321 34.9048C40.7999 34.9048 41.2591 34.7146 41.5977 34.376C41.9363 34.0374 42.1265 33.5782 42.1265 33.0994V23.4705C42.1265 22.9916 41.9363 22.5324 41.5977 22.1938C41.2591 21.8553 40.7999 21.665 40.321 21.665C39.8422 21.665 39.383 21.8553 39.0444 22.1938C38.7058 22.5324 38.5156 22.9916 38.5156 23.4705V33.0994C38.5156 33.5782 38.7058 34.0374 39.0444 34.376C39.383 34.7146 39.8422 34.9048 40.321 34.9048ZM56.5698 13.2397V43.3301H59.5789C60.0577 43.3301 60.5169 43.5203 60.8555 43.8589C61.1941 44.1975 61.3843 44.6567 61.3843 45.1355C61.3843 45.6143 61.1941 46.0735 60.8555 46.4121C60.5169 46.7507 60.0577 46.9409 59.5789 46.9409H32.4976V53.2117C34.0348 53.6475 35.3626 54.6246 36.2358 55.9626C37.1091 57.3007 37.469 58.9095 37.249 60.4921C37.029 62.0747 36.244 63.5243 35.0389 64.5735C33.8339 65.6226 32.29 66.2005 30.6921 66.2005C29.0943 66.2005 27.5504 65.6226 26.3453 64.5735C25.1402 63.5243 24.3553 62.0747 24.1353 60.4921C23.9153 58.9095 24.2752 57.3007 25.1484 55.9626C26.0217 54.6246 27.3495 53.6475 28.8867 53.2117V46.9409H1.80542C1.32659 46.9409 0.867377 46.7507 0.528795 46.4121C0.190213 46.0735 0 45.6143 0 45.1355C0 44.6567 0.190213 44.1975 0.528795 43.8589C0.867377 43.5203 1.32659 43.3301 1.80542 43.3301H4.81445V13.2397H4.21265C3.09538 13.2397 2.02388 12.7959 1.23386 12.0059C0.443831 11.2159 0 10.1444 0 9.0271V4.21265C0 3.09538 0.443831 2.02388 1.23386 1.23386C2.02388 0.443831 3.09538 0 4.21265 0H57.1716C58.2889 0 59.3604 0.443831 60.1504 1.23386C60.9404 2.02388 61.3843 3.09538 61.3843 4.21265V9.0271C61.3843 10.1444 60.9404 11.2159 60.1504 12.0059C59.3604 12.7959 58.2889 13.2397 57.1716 13.2397H56.5698ZM30.6921 56.5698C30.097 56.5698 29.5152 56.7463 29.0204 57.0769C28.5256 57.4076 28.1399 57.8775 27.9122 58.4274C27.6844 58.9772 27.6248 59.5822 27.7409 60.1659C27.857 60.7496 28.1436 61.2857 28.5644 61.7066C28.9853 62.1274 29.5214 62.414 30.1051 62.5301C30.6888 62.6462 31.2938 62.5866 31.8436 62.3588C32.3935 62.1311 32.8634 61.7454 33.1941 61.2506C33.5247 60.7558 33.7012 60.174 33.7012 59.5789C33.7012 58.7808 33.3842 58.0154 32.8198 57.4511C32.2555 56.8868 31.4902 56.5698 30.6921 56.5698ZM4.21265 9.62891H57.1716C57.3312 9.62891 57.4843 9.5655 57.5972 9.45264C57.71 9.33978 57.7734 9.18671 57.7734 9.0271V4.21265C57.7734 4.05304 57.71 3.89997 57.5972 3.7871C57.4843 3.67424 57.3312 3.61084 57.1716 3.61084H4.21265C4.05304 3.61084 3.89997 3.67424 3.7871 3.7871C3.67424 3.89997 3.61084 4.05304 3.61084 4.21265V9.0271C3.61084 9.18671 3.67424 9.33978 3.7871 9.45264C3.89997 9.5655 4.05304 9.62891 4.21265 9.62891ZM52.959 13.2397H8.42529V43.3301H52.959V13.2397Z" fill="#15194B"/>
</svg>
