<svg width="20" height="20" viewBox="0 0 20 20" fill="none" xmlns="http://www.w3.org/2000/svg">
<path d="M19.9629 16.8552C19.8294 17.429 19.5145 17.9445 19.0649 18.3252C18.563 18.8357 17.9639 19.2405 17.303 19.5156C16.6421 19.7908 15.9328 19.9307 15.2169 19.9272H14.8589C13.373 19.8498 11.9166 19.4822 10.5719 18.8452C10.2459 18.6922 9.92892 18.5492 9.55192 18.3752C7.97598 17.4852 6.5295 16.3833 5.25292 15.1002C3.59347 13.5439 2.23363 11.6963 1.24092 9.64924C0.694404 8.53249 0.326272 7.33698 0.149924 6.10624C-0.09645 4.82374 0.0492108 3.49676 0.567924 2.29824C0.890586 1.75413 1.28551 1.25626 1.74192 0.818242C1.9504 0.59082 2.20249 0.407665 2.48321 0.279676C2.76392 0.151688 3.06752 0.081484 3.37592 0.0732422C3.71222 0.108789 4.03802 0.21113 4.33424 0.374263C4.63045 0.537396 4.89111 0.758036 5.10092 1.02324C5.57092 1.54324 6.12092 2.04324 6.62092 2.57324L7.26492 3.20724C7.64492 3.54024 7.87992 4.00924 7.91792 4.51324C7.91892 4.97724 7.74792 5.42424 7.43792 5.76924C7.24271 6.01116 7.0351 6.24281 6.81592 6.46324L6.60092 6.68824C6.47571 6.80459 6.37801 6.94739 6.31492 7.10624C6.26292 7.26024 6.24492 7.42424 6.26492 7.58624C6.42892 8.03024 6.68592 8.43424 7.01992 8.77024C7.53992 9.47424 8.03992 10.0872 8.60192 10.8122C9.5712 11.9306 10.7203 12.8793 12.0019 13.6192C12.1249 13.7192 12.2719 13.7862 12.4299 13.8132C12.5699 13.8342 12.7109 13.8132 12.8379 13.7512C13.2273 13.5428 13.5738 13.2625 13.8589 12.9252C14.2189 12.4812 14.7409 12.1992 15.3089 12.1382C15.5816 12.1393 15.8512 12.1949 16.102 12.3019C16.3528 12.4089 16.5795 12.5651 16.7689 12.7612C17.0023 12.9626 17.2233 13.1769 17.4319 13.4042L17.7379 13.7312L18.0549 14.0372C18.2479 14.2312 18.4319 14.4052 18.6149 14.6092C18.9483 14.8959 19.2583 15.2056 19.5449 15.5382C19.8379 15.9122 19.9859 16.3802 19.9629 16.8552Z" fill="white"/>
</svg>
